<?xml version="1.0" encoding="utf-8"?>
<!-- Generator: Adobe Illustrator 16.0.3, SVG Export Plug-In . SVG Version: 6.00 Build 0)  -->
<!DOCTYPE svg PUBLIC "-//W3C//DTD SVG 1.1//EN" "http://www.w3.org/Graphics/SVG/1.1/DTD/svg11.dtd">
<svg version="1.1" id="Layer_1" xmlns="http://www.w3.org/2000/svg" xmlns:xlink="http://www.w3.org/1999/xlink" x="0px" y="0px"
	 width="48px" height="48px" viewBox="0 0 48 48" enable-background="new 0 0 48 48" xml:space="preserve">
<g id="Layer_1_1_">
</g>
<path fill="#4C75A3" d="M24,46C11.849,46,2,36.151,2,24S11.849,2,24,2c12.152,0,22,9.849,22,22S36.152,46,24,46z M26.329,17.538
	c-0.111-0.722-0.318-0.998-1.031-1.134c-1.495-0.292-2.999-0.231-4.494-0.043c-0.464,0.052-0.902,0.232-1.22,0.601
	c-0.181,0.207-0.267,0.353,0.129,0.43c0.773,0.146,1.186,0.653,1.289,1.418c0.146,1.126,0.154,2.269,0.06,3.403
	c-0.035,0.396-0.086,0.792-0.241,1.169c-0.223,0.516-0.567,0.628-1.031,0.309c-0.455-0.309-0.773-0.765-1.082-1.212
	c-1.049-1.504-1.882-3.128-2.579-4.821c-0.207-0.507-0.576-0.765-1.101-0.774c-1.28-0.018-2.569-0.025-3.85,0
	c-0.782,0.018-1.023,0.396-0.705,1.1c1.418,3.153,2.99,6.213,5.044,8.998c1.04,1.4,2.217,2.646,3.747,3.54
	c1.788,1.04,3.729,1.375,5.774,1.272c0.945-0.053,1.237-0.291,1.28-1.221c0.025-0.636,0.095-1.28,0.412-1.856
	c0.31-0.565,0.783-0.679,1.324-0.335c0.344,0.215,0.609,0.518,0.885,0.809c0.498,0.542,0.972,1.109,1.495,1.625
	c0.567,0.565,1.238,0.97,2.08,0.97c1.255,0.01,2.501-0.009,3.757,0c0.316,0,0.61-0.067,0.884-0.196
	c0.481-0.224,0.629-0.602,0.439-1.11c-0.13-0.326-0.319-0.627-0.524-0.909c-0.833-1.153-1.864-2.115-2.896-3.076
	c-1.238-1.161-1.263-1.505-0.258-2.88c0.843-1.151,1.753-2.251,2.543-3.438c0.465-0.696,0.921-1.393,1.144-2.208
	c0.172-0.601,0.018-0.868-0.585-1.014c-0.154-0.043-0.317-0.069-0.474-0.069c-1.495-0.008-2.98,0-4.476-0.008
	c-0.431-0.009-0.697,0.18-0.861,0.558c-0.154,0.361-0.292,0.713-0.446,1.065c-0.748,1.71-1.623,3.343-2.87,4.753
	c-0.258,0.292-0.551,0.696-0.997,0.542c-0.49-0.172-0.533-0.679-0.592-1.126c-0.019-0.112-0.019-0.223-0.019-0.334
	c0-0.697,0-1.384,0-2.072C26.252,19.351,26.458,18.44,26.329,17.538z"/>
<rect fill="none" width="48" height="48"/>
</svg>
