<?xml version="1.0" encoding="utf-8"?>
<!-- Generator: Adobe Illustrator 16.0.3, SVG Export Plug-In . SVG Version: 6.00 Build 0)  -->
<!DOCTYPE svg PUBLIC "-//W3C//DTD SVG 1.1//EN" "http://www.w3.org/Graphics/SVG/1.1/DTD/svg11.dtd">
<svg version="1.1" id="Layer_1" xmlns="http://www.w3.org/2000/svg" xmlns:xlink="http://www.w3.org/1999/xlink" x="0px" y="0px"
	 width="48px" height="48px" viewBox="0 0 48 48" enable-background="new 0 0 48 48" xml:space="preserve">
<g>
	<path fill="#598DCA" d="M27.056,15.407c-1.921,0.699-3.135,2.502-2.997,4.474l0.047,0.762l-0.768-0.093
		c-2.797-0.358-5.24-1.568-7.314-3.604l-1.015-1.011l-0.262,0.745c-0.554,1.663-0.2,3.418,0.953,4.6
		c0.614,0.652,0.476,0.745-0.584,0.356c-0.369-0.123-0.691-0.217-0.722-0.172c-0.107,0.111,0.261,1.523,0.553,2.082
		c0.4,0.777,1.213,1.538,2.105,1.989l0.754,0.358l-0.891,0.015c-0.86,0-0.893,0.016-0.799,0.343c0.306,1.01,1.52,2.082,2.872,2.548
		l0.952,0.325l-0.828,0.497c-1.229,0.717-2.674,1.12-4.119,1.149c-0.691,0.016-1.26,0.078-1.26,0.125
		c0,0.154,1.875,1.024,2.966,1.368c3.271,1.01,7.16,0.572,10.08-1.151c2.074-1.228,4.148-3.667,5.117-6.028
		c0.522-1.259,1.045-3.558,1.045-4.658c0-0.717,0.047-0.81,0.907-1.663c0.507-0.497,0.982-1.041,1.075-1.196
		c0.153-0.296,0.138-0.296-0.646-0.032c-1.307,0.466-1.491,0.404-0.845-0.295c0.477-0.497,1.044-1.398,1.044-1.662
		c0-0.047-0.229,0.03-0.49,0.17c-0.277,0.156-0.893,0.389-1.354,0.528l-0.829,0.265l-0.753-0.514
		c-0.414-0.279-0.998-0.59-1.306-0.682C28.961,15.127,27.762,15.159,27.056,15.407z M24,46C11.851,46,2,36.15,2,24S11.851,2,24,2
		c12.15,0,22,9.85,22,22S36.15,46,24,46z"/>
</g>
<rect fill="none" width="48" height="48"/>
</svg>
